HIERARCHY
ROOT Hips
{
	OFFSET	0.000000	0.000000	0.000000
	CHANNELS 6 Xposition Yposition Zposition Zrotation Xrotation Yrotation
	JOINT LeftHip
	{
		OFFSET	5.500000	0.000000	0.000000
		CHANNELS 3 Zrotation Xrotation Yrotation
		JOINT LeftKnee
		{
			OFFSET	0.000000	-15.000000	0.000000
			CHANNELS 3 Zrotation Xrotation Yrotation
			JOINT LeftAnkle
			{
				OFFSET	0.000000	-17.500000	0.000000
				CHANNELS 3 Zrotation Xrotation Yrotation
				End Site
				{
					OFFSET	0.000000	-4.500000	-3.000000
				}
			}
		}
	}
	JOINT RightHip
	{
		OFFSET	-5.500000	0.000000	0.000000
		CHANNELS 3 Zrotation Xrotation Yrotation
		JOINT RightKnee
		{
			OFFSET	0.000000	-15.000000	0.000000
			CHANNELS 3 Zrotation Xrotation Yrotation
			JOINT RightAnkle
			{
				OFFSET	0.000000	-17.500000	0.000000
				CHANNELS 3 Zrotation Xrotation Yrotation
				End Site
				{
					OFFSET	0.000000	-4.500000	-3.000000
				}
			}
		}
	}
	JOINT Chest
	{
		OFFSET	0.000000	3.000000	-1.000000
		CHANNELS 3 Zrotation Xrotation Yrotation
		JOINT LeftCollar
		{
			OFFSET	0.000000	18.000000	1.000000
			CHANNELS 3 Zrotation Xrotation Yrotation
			JOINT LeftShoulder
			{
				OFFSET	7.500000	0.000000	0.000000
				CHANNELS 3 Zrotation Xrotation Yrotation
				JOINT LeftElbow
				{
					OFFSET	0.000000	-11.000000	0.000000
					CHANNELS 3 Zrotation Xrotation Yrotation
					JOINT LeftWrist
					{
						OFFSET	0.000000	-11.000000	0.000000
						CHANNELS 3 Zrotation Xrotation Yrotation
						End Site
						{
							OFFSET	0.000000	-7.000000	0.000000
						}
					}
				}
			}
		}
		JOINT RightCollar
		{
			OFFSET	0.000000	18.000000	1.000000
			CHANNELS 3 Zrotation Xrotation Yrotation
			JOINT RightShoulder
			{
				OFFSET	-7.500000	0.000000	0.000000
				CHANNELS 3 Zrotation Xrotation Yrotation
				JOINT RightElbow
				{
					OFFSET	0.000000	-11.000000	0.000000
					CHANNELS 3 Zrotation Xrotation Yrotation
					JOINT RightWrist
					{
						OFFSET	0.000000	-11.000000	0.000000
						CHANNELS 3 Zrotation Xrotation Yrotation
						End Site
						{
							OFFSET	0.000000	-7.000000	0.000000
						}
					}
				}
			}
		}
		JOINT Neck
		{
			OFFSET	0.000000	18.000000	1.000000
			CHANNELS 3 Zrotation Xrotation Yrotation
			JOINT Head
			{
				OFFSET	0.000000	2.000000	0.000000
				CHANNELS 3 Zrotation Xrotation Yrotation
				End Site
				{
					OFFSET	0.000000	7.000000	0.000000
				}
			}
		}
	}
}
MOTION
Frames:     16
Frame Time: 0.033333
248.998032	36.749184	64.575829	179.194489	-179.662155	7.819517	-1.182504	9.759523	10.254481	0.000000	-0.957978	0.000000	-5.987977	1.048810	4.316373	-0.325890	14.091871	-11.518366	0.000000	-1.186470	0.000000	7.437202	-1.756001	-9.293692	1.493809	1.466252	5.485113	-1.458512	6.121078	0.155554	5.041558	-6.623308	4.975655	-2.000000	-11.894299	0.000000	-17.084023	-0.949205	-16.030966	-1.458512	6.121078	0.155554	-5.038008	-6.019910	-4.492244	2.000000	-16.636389	0.000000	12.805676	4.539134	17.760262	-0.080566	0.000000	0.000000	-2.101101	-1.535614	-1.836633	
249.195465	36.749161	64.529358	179.164505	-179.449844	8.162048	-0.937817	9.581635	10.216244	0.000000	-1.080023	0.000000	-5.509473	1.211169	3.994260	-0.159765	14.093409	-11.558816	0.000000	-1.215202	0.000000	7.373988	-2.069836	-9.539703	1.654960	1.305372	5.651859	-1.215428	6.121680	0.129633	4.679417	-7.128387	4.957248	-2.000000	-11.910482	0.000000	-17.336334	-1.229037	-15.793658	-1.215428	6.121680	0.129633	-5.281044	-6.018511	-4.968901	2.000000	-16.315702	0.000000	12.848101	4.561859	17.430059	-0.080566	0.000000	0.000000	-2.141814	-2.081942	-2.150624	
249.195938	36.751385	64.521957	179.184341	-179.137634	8.323278	-0.938637	9.315813	10.221238	0.000000	-1.220593	0.000000	-5.519201	1.446381	3.751187	0.006363	14.094831	-11.599271	0.000000	-1.244008	0.000000	7.525331	-2.085041	-9.702744	1.655613	0.902540	5.490714	-1.215428	6.121680	0.129633	4.680611	-7.329583	4.741155	-2.000000	-12.734374	0.000000	-17.888002	-1.123902	-15.810738	-1.215428	6.121680	0.129633	-5.281044	-6.018511	-5.194487	2.000000	-16.103540	0.000000	12.694327	4.505269	17.429943	-0.080566	0.000000	0.000000	-2.556666	-2.033972	-2.565386	
249.185959	36.744358	64.459503	179.199860	-179.040283	8.322040	-0.938637	9.315813	10.221238	0.000000	-1.220593	0.000000	-5.519201	1.446381	3.751187	0.008661	13.829122	-11.608796	0.000000	-0.981625	0.000000	7.659255	-2.252201	-9.704319	1.655874	0.741408	5.490711	-1.215428	6.121680	0.129633	4.680611	-7.329583	4.289983	-2.000000	-13.087782	0.000000	-18.553593	-0.814875	-15.825617	-1.215428	6.121680	0.129633	-5.281044	-6.018511	-5.194487	2.000000	-15.891416	0.000000	12.540570	4.448705	17.429644	-0.080566	0.000000	0.000000	-2.838428	-2.015898	-2.579605	
249.204453	36.747910	64.513153	179.205032	-179.025787	8.307076	-0.938637	9.315813	10.221238	0.000000	-1.389782	0.000000	-5.519201	1.446381	3.751187	0.008661	13.829122	-11.608796	0.000000	-0.803894	0.000000	7.632115	-2.419092	-9.704343	1.816836	0.741676	5.496327	-1.215428	6.121680	0.129633	5.044782	-7.126138	4.325822	-2.000000	-13.177972	0.000000	-18.677036	-0.508796	-16.498873	-1.215428	6.121680	0.129633	-5.279850	-5.817425	-5.182899	2.000000	-15.891416	0.000000	12.540570	4.448705	17.429644	-0.080566	0.000000	0.000000	-3.289220	-1.986773	-2.602091	
249.168915	36.735737	64.404907	179.224136	-179.030319	8.206090	-0.938093	9.493029	10.056776	0.000000	-1.360600	0.000000	-5.514385	1.432854	3.587954	0.008661	13.829122	-11.608796	0.000000	-0.773083	0.000000	7.640638	-2.432616	-9.539924	1.816836	0.741676	5.496327	-1.053371	6.122020	0.112351	5.044782	-7.126138	4.100235	-2.000000	-13.147702	0.000000	-18.441568	-0.317755	-16.740770	-1.053371	6.122020	0.112351	-5.279850	-5.817425	-5.182899	2.000000	-16.082159	0.000000	12.386830	4.392166	17.429169	-0.080566	0.000000	0.000000	-3.158418	-2.311030	-2.902989	
249.129959	36.728661	64.371361	179.245605	-179.035355	8.093065	-0.938093	9.493029	10.056776	0.000000	-1.180004	0.000000	-5.745433	1.246117	3.584135	0.008661	13.829122	-11.608796	0.000000	-0.595397	0.000000	7.613955	-2.599541	-9.540022	1.816836	0.741676	5.496327	-1.053371	6.122020	0.112351	5.286933	-6.923394	4.118810	-2.000000	-12.730330	0.000000	-18.049227	-0.400899	-16.729452	-1.053371	6.122020	0.112351	-5.279850	-5.817425	-5.182899	2.000000	-16.082159	0.000000	12.386830	4.392166	17.429169	-0.080566	0.000000	0.000000	-3.425038	-2.855128	-2.966094	
249.128479	36.727573	64.394318	179.269821	-179.041306	7.967120	-0.938093	9.493029	10.056776	0.000000	-1.169871	0.000000	-5.735340	1.075697	3.582965	0.008661	13.829122	-11.608796	0.000000	-0.395429	0.000000	7.622891	-2.613086	-9.375587	1.816836	0.741676	5.496327	-0.810534	6.283556	0.088718	5.286933	-6.923394	4.118810	-2.000000	-11.910203	0.000000	-17.415447	-0.487177	-16.704063	-0.810534	6.283556	0.088718	-5.279850	-5.817425	-5.182899	2.000000	-16.283575	0.000000	12.386830	4.392166	17.429169	-0.080566	0.000000	0.000000	-2.739521	-2.672082	-3.013941	
249.065140	36.712833	64.251762	179.313889	-179.053024	7.735786	-0.937539	9.670243	10.053444	0.000000	-0.999462	0.000000	-5.976501	1.059449	3.580204	0.008661	13.829122	-11.608796	0.000000	-0.395429	0.000000	7.622891	-2.613086	-9.375587	1.816836	0.741676	5.657461	-0.810534	6.283556	0.088718	5.286933	-6.923394	4.118810	-2.000000	-11.123123	0.000000	-16.892952	-0.368863	-16.678345	-0.810534	6.283556	0.088718	-5.278696	-5.616339	-5.171320	2.000000	-16.311394	0.000000	12.498967	4.569098	17.437675	-0.080566	0.000000	0.000000	-2.634315	-2.672672	-3.119194	
249.081757	36.709332	64.274033	179.313522	-179.054779	7.583505	-0.937539	9.670243	10.053444	0.000000	-0.989387	0.000000	-5.966423	0.889088	3.579034	-0.240243	13.826988	-11.549306	0.000000	-0.334000	0.000000	7.801704	-2.640146	-9.047966	1.816836	0.741676	5.657461	-0.810788	6.444673	0.091012	5.286933	-6.923394	4.118810	-2.000000	-10.509310	0.000000	-16.416771	-0.426610	-16.657869	-0.810788	6.444673	0.091012	-5.521556	-5.614934	-5.195086	2.000000	-16.512810	0.000000	12.498967	4.569098	17.437675	-0.080566	0.000000	0.000000	-2.138540	-2.702187	-3.254468	
248.949280	36.671108	64.099792	179.225891	-179.043015	7.550041	-1.100993	9.670706	10.080901	0.000000	-0.371465	0.000000	-6.343732	0.452742	3.572946	-0.487261	13.647524	-11.497747	0.000000	-0.288040	0.000000	7.814902	-2.660126	-8.801197	1.656265	0.499709	5.651839	-0.648631	6.444902	0.072810	5.286933	-6.923394	4.118810	-2.000000	-10.106478	0.000000	-16.175371	-0.429582	-16.644236	-0.648631	6.444902	0.072810	-5.521556	-5.614934	-5.195086	2.000000	-16.730247	0.000000	12.889874	4.655151	17.446196	-0.080566	0.000000	0.000000	-2.542120	-2.782258	-3.288461	
248.883102	36.651482	64.030792	179.196060	-179.047043	7.523354	-1.101923	9.316258	10.086537	0.000000	0.593431	0.000000	-6.630859	-0.142421	3.567253	-0.735966	13.644924	-11.439072	0.000000	-0.029678	0.000000	8.454788	-2.726264	-8.798830	1.656265	0.499709	5.651839	-0.648631	6.444902	0.072810	5.286933	-6.923394	4.118810	-2.000000	-10.116043	0.000000	-16.329718	-0.375956	-16.646641	-0.648631	6.444902	0.072810	-5.520362	-5.413898	-5.182658	2.000000	-16.973372	0.000000	12.817586	4.918699	17.447109	-0.080566	0.000000	0.000000	-2.577088	-2.747751	-3.796061	
248.752563	36.638699	64.086174	179.195404	-179.220657	7.386796	-1.103249	8.784586	10.094970	0.000000	1.941243	0.000000	-7.306980	-1.029184	3.390862	-0.984667	13.642076	-11.380407	0.000000	-0.023145	0.000000	9.173493	-2.818763	-8.793409	1.656265	0.499709	5.249007	-0.648427	6.283780	0.070975	5.285552	-6.722310	4.107182	-2.000000	-9.942808	0.000000	-16.122641	-0.201497	-16.632595	-0.648427	6.283780	0.070975	-5.520362	-5.413898	-5.182658	2.000000	-16.984095	0.000000	13.131615	4.976521	17.455048	-0.080566	0.000000	0.000000	-2.211051	-2.562061	-3.646533	
248.584229	36.569931	63.869125	179.139893	-179.493729	7.211402	-1.103882	8.518747	10.099178	0.000000	3.844526	0.000000	-8.196976	-2.316155	3.537662	-1.235804	13.815942	-11.311462	0.000000	0.458507	0.000000	9.773650	-2.760852	-8.456117	1.494912	0.741155	4.598862	-0.648427	6.283780	0.070975	5.285552	-6.722310	4.107182	-2.000000	-9.942808	0.000000	-16.122641	-0.201497	-16.632595	-0.648427	6.283780	0.070975	-5.764415	-5.613429	-5.218844	2.000000	-16.984095	0.000000	13.131615	4.976521	17.455048	-0.080566	0.000000	0.000000	-2.778011	-2.691142	-3.525402	
248.333328	36.530819	63.997559	179.000443	179.944550	6.871765	-1.430385	8.076266	9.426807	0.000000	5.656447	0.000000	-8.892799	-3.562283	4.182187	-1.653384	13.987043	-11.200801	0.000000	1.402214	0.000000	10.309817	-2.991921	-8.450749	1.333606	0.982617	4.270982	-0.648427	6.283780	0.070975	5.285552	-6.722310	4.107182	-2.000000	-9.952406	0.000000	-16.276991	-0.147877	-16.634840	-0.648427	6.283780	0.070975	-6.008681	-5.812747	-5.256744	2.000000	-16.681969	0.000000	13.131615	4.976521	17.455048	-0.080566	0.000000	0.000000	-2.239210	-2.643688	-3.145813	
248.312897	36.515633	64.091721	179.033630	179.444092	6.445089	-1.430133	8.253504	8.941628	0.000000	6.223574	0.000000	-9.239708	-4.541609	5.081708	-1.812195	13.542368	-11.191033	0.000000	3.198955	0.000000	11.233694	-3.777780	-7.615772	1.333147	1.304883	4.029293	-0.648427	6.283780	0.070975	5.285552	-6.722310	4.107182	-2.000000	-9.962038	0.000000	-16.592230	-0.092241	-16.645872	-0.648427	6.283780	0.070975	-6.008681	-5.812747	-5.256744	2.000000	-16.681969	0.000000	13.131615	4.976521	17.455048	-0.080566	0.000000	0.000000	-2.315904	-1.946484	-2.377843	
